<svg xmlns="http://www.w3.org/2000/svg" viewBox="0 0 240 96" width="240" height="96" role="img" aria-label="Suvo">
  <title>Suvo</title>
  <!-- Wordmark-only lockup: dropped monogram to avoid "SSuvo" reading next to the word. -->
  <g fill="#FF6B00">
    <!-- S (cap) -->
    <path d="M 12 6 H 54 A 12 12 0 0 1 66 18 V 24 H 54 V 18 H 24 L 60 60 A 12 12 0 0 1 48 72 H 12 V 60 H 48 A 6 6 0 0 0 54 54 L 18 18 A 12 12 0 0 1 12 6 Z"/>
    <!-- u (lowercase, x-height 48, single-story) -->
    <path d="M 84 24 V 54 A 18 18 0 0 0 120 54 V 24 H 108 V 54 A 6 6 0 0 1 96 54 V 24 Z"/>
    <!-- v (lowercase, flat truncated apex) -->
    <path d="M 144 24 L 162 72 H 174 L 192 24 H 180 L 168 60 L 156 24 Z"/>
    <!-- o (perfect circle, outer r=24, inner r=12) -->
    <path fill-rule="evenodd" d="M 222 48 A 24 24 0 1 1 174 48 A 24 24 0 1 1 222 48 Z M 210 48 A 12 12 0 1 0 186 48 A 12 12 0 1 0 210 48 Z"/>
  </g>
</svg>
